<svg width="121" height="121" viewBox="0 0 121 121" fill="none" xmlns="http://www.w3.org/2000/svg">
<rect x="0.809937" y="0.809937" width="120" height="120" rx="29.3878" fill="#FFDFE9"/>
<path d="M61.1937 26.6887C70.345 26.6887 79.1215 30.324 85.5925 36.7949C92.0634 43.2659 95.6988 52.0424 95.6988 61.1937C95.6988 70.345 92.0634 79.1215 85.5925 85.5924C79.1215 92.0634 70.345 95.6987 61.1937 95.6987C52.0424 95.6987 43.266 92.0634 36.795 85.5924C30.3241 79.1215 26.6887 70.345 26.6887 61.1937C26.6887 52.0424 30.3241 43.2659 36.795 36.7949C43.266 30.324 52.0424 26.6887 61.1937 26.6887ZM61.1937 41.4765C60.5679 41.476 59.9489 41.606 59.3761 41.8582C58.8034 42.1104 58.2895 42.4793 57.8674 42.9414C57.4453 43.4034 57.1241 43.9484 56.9245 44.5415C56.7249 45.1346 56.6512 45.7629 56.7081 46.3861L58.5073 66.1328C58.577 66.7967 58.8901 67.4113 59.3862 67.858C59.8823 68.3046 60.5262 68.5518 61.1937 68.5518C61.8613 68.5518 62.5052 68.3046 63.0013 67.858C63.4973 67.4113 63.8105 66.7967 63.8802 66.1328L65.6745 46.3861C65.7313 45.7633 65.6577 45.1354 65.4584 44.5427C65.2591 43.9499 64.9384 43.4051 64.5168 42.9432C64.0952 42.4812 63.582 42.1122 63.0098 41.8597C62.4377 41.6072 61.8192 41.4767 61.1937 41.4765ZM61.1937 80.9108C62.2396 80.9108 63.2426 80.4954 63.9822 79.7558C64.7217 79.0163 65.1372 78.0133 65.1372 76.9674C65.1372 75.9215 64.7217 74.9185 63.9822 74.179C63.2426 73.4394 62.2396 73.024 61.1937 73.024C60.1479 73.024 59.1449 73.4394 58.4053 74.179C57.6658 74.9185 57.2503 75.9215 57.2503 76.9674C57.2503 78.0133 57.6658 79.0163 58.4053 79.7558C59.1449 80.4954 60.1479 80.9108 61.1937 80.9108Z" fill="#EE2763"/>
</svg>
